<?xml version="1.0" standalone="no"?>
<!DOCTYPE svg PUBLIC "-//W3C//DTD SVG 20010904//EN"
 "http://www.w3.org/TR/2001/REC-SVG-20010904/DTD/svg10.dtd">
<svg version="1.0" xmlns="http://www.w3.org/2000/svg"
 width="658.000000pt" height="655.000000pt" viewBox="0 0 658.000000 655.000000"
 preserveAspectRatio="xMidYMid meet">

<g transform="translate(0.000000,655.000000) scale(0.100000,-0.100000)"
fill="#000000" stroke="none">
<path d="M3010 6469 c-464 -38 -963 -202 -1350 -442 -551 -342 -960 -786
-1238 -1344 -180 -360 -277 -699 -328 -1138 -28 -243 -13 -569 40 -861 104
-580 365 -1114 767 -1569 420 -476 934 -801 1547 -976 260 -74 478 -107 777
-116 389 -12 713 36 1090 162 848 282 1523 876 1910 1680 342 711 405 1526
179 2309 -105 360 -320 773 -563 1076 -568 711 -1350 1138 -2236 1220 -125 11
-453 11 -595 -1z m670 -164 c340 -40 661 -135 975 -290 348 -171 750 -478 951
-727 32 -40 79 -98 105 -128 117 -141 287 -409 372 -589 274 -581 366 -1239
257 -1837 -140 -766 -515 -1395 -1130 -1893 -168 -137 -313 -228 -550 -346
-426 -213 -860 -315 -1345 -315 -299 0 -523 30 -817 109 -383 104 -750 290
-1077 545 -152 119 -370 333 -484 476 -391 491 -607 1006 -683 1627 -22 187
-15 557 16 752 106 687 415 1285 913 1768 87 84 181 171 210 193 354 271 634
419 1042 550 363 117 816 155 1245 105z"/>
<path d="M3115 6163 c-474 -39 -825 -142 -1215 -357 -58 -32 -106 -60 -108
-61 -2 -2 65 -110 147 -241 83 -132 155 -245 160 -253 7 -11 24 -5 89 32 277
160 672 275 997 289 l60 3 3 298 2 297 -47 -2 c-27 -1 -66 -3 -88 -5z"/>
<path d="M3372 5874 l3 -299 60 -3 c193 -8 460 -63 665 -137 99 -35 260 -111
360 -169 25 -14 48 -26 51 -26 6 0 29 34 129 195 35 55 92 145 128 199 l65 99
-22 17 c-13 9 -73 44 -134 77 -353 192 -773 311 -1200 339 l-107 7 2 -299z"/>
<path d="M1620 5627 c-299 -227 -517 -453 -736 -764 -63 -89 -197 -331 -191
-346 2 -6 80 -46 173 -86 93 -41 200 -90 237 -108 123 -61 108 -64 168 40 162
281 368 523 603 710 55 43 107 82 115 87 19 10 22 4 -124 235 -56 88 -117 186
-135 218 -19 31 -39 57 -45 56 -5 0 -35 -19 -65 -42z"/>
<path d="M4917 5648 c-8 -13 -55 -86 -104 -163 -155 -241 -193 -306 -187 -316
3 -5 48 -41 100 -80 100 -75 287 -253 372 -355 65 -77 207 -288 262 -388 23
-42 43 -76 45 -76 1 0 58 26 126 58 68 32 188 87 266 122 l141 64 -25 50
c-205 407 -551 808 -921 1069 -29 20 -55 37 -57 37 -3 0 -11 -10 -18 -22z"/>
<path d="M3065 5413 c-293 -38 -509 -105 -754 -235 -162 -85 -296 -178 -441
-305 -116 -101 -166 -155 -299 -319 -208 -257 -367 -631 -428 -1006 -23 -142
-23 -494 0 -636 33 -205 96 -416 171 -577 81 -173 259 -442 349 -527 54 -51
127 -25 127 45 0 26 -13 49 -60 105 -171 202 -329 512 -396 775 -112 440 -69
902 125 1336 193 431 562 807 995 1011 174 82 338 133 551 171 179 31 430 30
625 -4 492 -87 909 -323 1221 -692 196 -231 312 -438 403 -717 121 -370 127
-792 15 -1175 -71 -246 -211 -507 -383 -717 -63 -77 -69 -104 -31 -141 27 -28
61 -32 91 -11 31 22 166 192 211 267 177 290 261 504 314 804 20 111 23 164
24 365 0 261 -15 378 -76 594 -237 839 -987 1482 -1849 1586 -79 9 -439 12
-505 3z"/>
<path d="M3283 5060 c-49 -20 -55 -46 -51 -220 3 -156 4 -162 27 -181 34 -28
82 -25 112 7 23 25 24 30 24 178 0 170 -7 198 -58 216 -16 5 -30 10 -31 9 -1
0 -11 -4 -23 -9z"/>
<path d="M617 4363 c-130 -299 -212 -685 -223 -1048 -5 -160 12 -415 30 -432
6 -6 326 38 476 66 l85 16 -5 85 c-22 381 33 722 169 1058 l21 52 -28 12 c-23
10 -273 123 -449 204 -28 13 -54 24 -56 24 -2 0 -11 -17 -20 -37z"/>
<path d="M5930 4384 c-38 -22 -347 -167 -412 -194 -63 -26 -69 -39 -44 -88 27
-53 87 -236 112 -344 53 -231 74 -485 56 -688 -5 -58 -8 -106 -7 -108 6 -8
559 -82 565 -75 16 16 33 328 26 478 -12 269 -74 593 -166 859 -64 184 -71
194 -130 160z"/>
<path d="M4332 4368 c-17 -13 -220 -202 -451 -420 l-420 -398 -62 16 c-71 18
-142 14 -224 -13 -64 -21 -151 -106 -191 -188 -25 -52 -29 -71 -28 -140 1
-145 72 -257 203 -319 58 -27 76 -31 151 -30 64 0 99 5 141 22 159 63 246 236
209 412 l-13 61 130 132 c71 73 163 168 204 212 41 44 168 178 282 297 114
120 212 229 218 242 17 35 3 92 -28 116 -34 26 -82 26 -121 -2z"/>
<path d="M1484 3276 c-37 -31 -39 -90 -5 -117 21 -17 42 -19 190 -19 178 1
192 4 210 53 13 33 1 69 -31 91 -18 13 -52 16 -180 16 -151 0 -158 -1 -184
-24z"/>
<path d="M4773 3280 c-28 -17 -33 -26 -33 -58 0 -27 7 -45 23 -60 22 -21 33
-22 189 -22 152 0 167 2 192 21 35 28 36 80 1 114 -24 24 -28 25 -182 25 -140
0 -162 -2 -190 -20z"/>
<path d="M915 2834 c-44 -7 -170 -27 -279 -44 -110 -17 -201 -32 -202 -33 -4
-5 67 -293 95 -385 78 -252 220 -540 377 -767 69 -101 204 -270 214 -270 13 0
430 354 430 365 0 6 -31 49 -69 98 -110 140 -197 276 -271 427 -74 151 -158
388 -186 525 -10 47 -20 88 -23 91 -3 3 -42 0 -86 -7z"/>
<path d="M5597 2747 c-21 -112 -94 -329 -150 -452 -85 -184 -175 -331 -301
-489 l-79 -99 40 -36 c52 -47 273 -236 345 -295 l56 -46 70 88 c311 391 522
847 605 1309 7 36 20 32 -158 58 -60 9 -164 25 -230 36 -191 30 -177 36 -198
-74z"/>
<path d="M3215 2341 c-136 -22 -228 -67 -327 -160 -70 -66 -118 -138 -157
-239 l-26 -67 0 -375 c0 -290 3 -386 14 -425 25 -91 87 -197 159 -270 143
-148 336 -208 550 -171 237 41 418 208 477 441 22 86 22 721 0 814 -46 195
-212 372 -404 432 -73 22 -211 32 -286 20z m425 -545 l24 -27 -137 -137 -137
-137 136 -137 c75 -75 134 -142 132 -150 -2 -7 -92 -101 -201 -208 l-197 -194
0 279 0 280 -120 -120 -120 -120 -37 38 -38 37 145 145 145 145 -149 149 -149
149 34 31 c19 17 37 31 42 31 4 0 61 -52 127 -116 l120 -117 0 273 0 272 178
-170 c97 -93 188 -182 202 -196z"/>
<path d="M3364 1765 l-1 -145 46 43 c25 23 59 57 75 75 l29 33 -69 70 c-38 38
-71 69 -74 69 -3 0 -5 -65 -6 -145z"/>
<path d="M3366 1218 c2 -78 6 -143 7 -144 1 -1 35 29 76 68 l74 69 -74 75
c-40 41 -77 74 -81 74 -4 0 -5 -64 -2 -142z"/>
</g>
</svg>
