<?xml version="1.0" standalone="no"?>
<!DOCTYPE svg PUBLIC "-//W3C//DTD SVG 20010904//EN"
 "http://www.w3.org/TR/2001/REC-SVG-20010904/DTD/svg10.dtd">
<svg version="1.0" xmlns="http://www.w3.org/2000/svg"
 width="2816.000000pt" height="1536.000000pt" viewBox="0 0 2816.000000 1536.000000"
 preserveAspectRatio="xMidYMid meet">

<g transform="translate(0.000000,1536.000000) scale(0.100000,-0.100000)"
fill="#000000" stroke="none">
<path d="M13940 10819 c-464 -38 -963 -202 -1350 -442 -551 -342 -960 -786
-1238 -1344 -180 -360 -277 -699 -328 -1138 -28 -243 -13 -569 40 -861 104
-580 365 -1114 767 -1569 420 -476 934 -801 1547 -976 260 -74 478 -107 777
-116 389 -12 713 36 1090 162 848 282 1523 876 1910 1680 342 711 405 1526
179 2309 -105 360 -320 773 -563 1076 -568 711 -1350 1138 -2236 1220 -125 11
-453 11 -595 -1z m670 -164 c340 -40 661 -135 975 -290 348 -171 750 -478 951
-727 32 -40 79 -98 105 -128 117 -141 287 -409 372 -589 274 -581 366 -1239
257 -1837 -140 -766 -515 -1395 -1130 -1893 -168 -137 -313 -228 -550 -346
-426 -213 -860 -315 -1345 -315 -299 0 -523 30 -817 109 -383 104 -750 290
-1077 545 -152 119 -370 333 -484 476 -391 491 -607 1006 -683 1627 -22 187
-15 557 16 752 106 687 415 1285 913 1768 87 84 181 171 210 193 354 271 634
419 1042 550 363 117 816 155 1245 105z"/>
<path d="M14045 10513 c-474 -39 -825 -142 -1215 -357 -58 -32 -106 -60 -108
-61 -2 -2 65 -110 147 -241 83 -132 155 -245 160 -253 7 -11 24 -5 89 32 277
160 672 275 997 289 l60 3 3 298 2 297 -47 -2 c-27 -1 -66 -3 -88 -5z"/>
<path d="M14302 10224 l3 -299 60 -3 c193 -8 460 -63 665 -137 99 -35 260
-111 360 -169 25 -14 48 -26 51 -26 6 0 29 34 129 195 35 55 92 145 128 199
l65 99 -22 17 c-13 9 -73 44 -134 77 -353 192 -773 311 -1200 339 l-107 7 2
-299z"/>
<path d="M12550 9977 c-299 -227 -517 -453 -736 -764 -63 -89 -197 -331 -191
-346 2 -6 80 -46 173 -86 93 -41 200 -90 237 -108 123 -61 108 -64 168 40 162
281 368 523 603 710 55 43 107 82 115 87 19 10 22 4 -124 235 -56 88 -117 186
-135 218 -19 31 -39 57 -45 56 -5 0 -35 -19 -65 -42z"/>
<path d="M15847 9998 c-8 -13 -55 -86 -104 -163 -155 -241 -193 -306 -187
-316 3 -5 48 -41 100 -80 100 -75 287 -253 372 -355 65 -77 207 -288 262 -388
23 -42 43 -76 45 -76 1 0 58 26 126 58 68 32 188 87 266 122 l141 64 -25 50
c-205 407 -551 808 -921 1069 -29 20 -55 37 -57 37 -3 0 -11 -10 -18 -22z"/>
<path d="M13995 9763 c-293 -38 -509 -105 -754 -235 -162 -85 -296 -178 -441
-305 -116 -101 -166 -155 -299 -319 -208 -257 -367 -631 -428 -1006 -23 -142
-23 -494 0 -636 33 -205 96 -416 171 -577 81 -173 259 -442 349 -527 54 -51
127 -25 127 45 0 26 -13 49 -60 105 -171 202 -329 512 -396 775 -112 440 -69
902 125 1336 193 431 562 807 995 1011 174 82 338 133 551 171 179 31 430 30
625 -4 492 -87 909 -323 1221 -692 196 -231 312 -438 403 -717 121 -370 127
-792 15 -1175 -71 -246 -211 -507 -383 -717 -63 -77 -69 -104 -31 -141 27 -28
61 -32 91 -11 31 22 166 192 211 267 177 290 261 504 314 804 20 111 23 164
24 365 0 261 -15 378 -76 594 -237 839 -987 1482 -1849 1586 -79 9 -439 12
-505 3z"/>
<path d="M14213 9410 c-49 -20 -55 -46 -51 -220 3 -156 4 -162 27 -181 34 -28
82 -25 112 7 23 25 24 30 24 178 0 170 -7 198 -58 216 -16 5 -30 10 -31 9 -1
0 -11 -4 -23 -9z"/>
<path d="M11547 8713 c-130 -299 -212 -685 -223 -1048 -5 -160 12 -415 30
-432 6 -6 326 38 476 66 l85 16 -5 85 c-22 381 33 722 169 1058 l21 52 -28 12
c-23 10 -273 123 -449 204 -28 13 -54 24 -56 24 -2 0 -11 -17 -20 -37z"/>
<path d="M16860 8734 c-38 -22 -347 -167 -412 -194 -63 -26 -69 -39 -44 -88
27 -53 87 -236 112 -344 53 -231 74 -485 56 -688 -5 -58 -8 -106 -7 -108 6 -8
559 -82 565 -75 16 16 33 328 26 478 -12 269 -74 593 -166 859 -64 184 -71
194 -130 160z"/>
<path d="M15262 8718 c-17 -13 -220 -202 -451 -420 l-420 -398 -62 16 c-71 18
-142 14 -224 -13 -64 -21 -151 -106 -191 -188 -25 -52 -29 -71 -28 -140 1
-145 72 -257 203 -319 58 -27 76 -31 151 -30 64 0 99 5 141 22 159 63 246 236
209 412 l-13 61 130 132 c71 73 163 168 204 212 41 44 168 178 282 297 114
120 212 229 218 242 17 35 3 92 -28 116 -34 26 -82 26 -121 -2z"/>
<path d="M12414 7626 c-37 -31 -39 -90 -5 -117 21 -17 42 -19 190 -19 178 1
192 4 210 53 13 33 1 69 -31 91 -18 13 -52 16 -180 16 -151 0 -158 -1 -184
-24z"/>
<path d="M15703 7630 c-28 -17 -33 -26 -33 -58 0 -27 7 -45 23 -60 22 -21 33
-22 189 -22 152 0 167 2 192 21 35 28 36 80 1 114 -24 24 -28 25 -182 25 -140
0 -162 -2 -190 -20z"/>
<path d="M11845 7184 c-44 -7 -170 -27 -279 -44 -110 -17 -201 -32 -202 -33
-4 -5 67 -293 95 -385 78 -252 220 -540 377 -767 69 -101 204 -270 214 -270
13 0 430 354 430 365 0 6 -31 49 -69 98 -110 140 -197 276 -271 427 -74 151
-158 388 -186 525 -10 47 -20 88 -23 91 -3 3 -42 0 -86 -7z"/>
<path d="M16527 7097 c-21 -112 -94 -329 -150 -452 -85 -184 -175 -331 -301
-489 l-79 -99 40 -36 c52 -47 273 -236 345 -295 l56 -46 70 88 c311 391 522
847 605 1309 7 36 20 32 -158 58 -60 9 -164 25 -230 36 -191 30 -177 36 -198
-74z"/>
<path d="M14145 6691 c-136 -22 -228 -67 -327 -160 -70 -66 -118 -138 -157
-239 l-26 -67 0 -375 c0 -290 3 -386 14 -425 25 -91 87 -197 159 -270 143
-148 336 -208 550 -171 237 41 418 208 477 441 22 86 22 721 0 814 -46 195
-212 372 -404 432 -73 22 -211 32 -286 20z m425 -545 l24 -27 -137 -137 -137
-137 136 -137 c75 -75 134 -142 132 -150 -2 -7 -92 -101 -201 -208 l-197 -194
0 279 0 280 -120 -120 -120 -120 -37 38 -38 37 145 145 145 145 -149 149 -149
149 34 31 c19 17 37 31 42 31 4 0 61 -52 127 -116 l120 -117 0 273 0 272 178
-170 c97 -93 188 -182 202 -196z"/>
<path d="M14294 6115 l-1 -145 46 43 c25 23 59 57 75 75 l29 33 -69 70 c-38
38 -71 69 -74 69 -3 0 -5 -65 -6 -145z"/>
<path d="M14296 5568 c2 -78 6 -143 7 -144 1 -1 35 29 76 68 l74 69 -74 75
c-40 41 -77 74 -81 74 -4 0 -5 -64 -2 -142z"/>
<path d="M59 10585 c-14 -7 -33 -31 -42 -52 -16 -36 -17 -224 -15 -2890 l3
-2853 33 -32 32 -33 913 0 c893 0 914 0 1007 21 194 43 345 121 472 242 145
139 240 316 290 542 l23 105 0 1980 c0 2117 2 2045 -50 2240 -86 327 -251 528
-537 653 -52 23 -138 52 -189 64 -93 22 -108 22 -1004 25 -771 2 -914 0 -936
-12z m1601 -951 c39 -12 66 -29 106 -69 97 -97 89 77 89 -1885 0 -1384 -3
-1726 -13 -1772 -19 -84 -66 -147 -137 -183 l-59 -30 -358 -3 -358 -3 0 1980
0 1981 338 0 c280 0 348 -3 392 -16z"/>
<path d="M4310 10585 c-403 -72 -676 -328 -775 -725 -52 -211 -50 -139 -50
-2225 0 -1797 1 -1957 17 -2040 74 -391 230 -622 513 -761 118 -58 218 -87
348 -104 130 -16 911 -13 1035 5 225 32 414 126 558 276 140 148 211 292 266
543 l23 101 3 1930 c3 2128 5 2065 -59 2306 -73 280 -225 471 -474 595 -62 31
-153 66 -210 81 l-100 27 -510 2 c-391 2 -528 -1 -585 -11z m843 -934 c58 -19
130 -95 156 -164 l21 -58 0 -1762 c-1 -1666 -2 -1765 -19 -1814 -36 -105 -87
-152 -193 -179 -50 -13 -104 -15 -282 -12 -203 4 -225 6 -271 26 -27 13 -60
33 -73 45 -36 33 -70 107 -82 178 -16 97 -9 3531 8 3580 26 76 109 146 199
168 56 14 490 7 536 -8z"/>
<path d="M7018 10584 c-63 -33 -58 202 -59 -2923 0 -2586 1 -2852 15 -2880 31
-60 41 -61 408 -61 377 0 392 3 415 70 9 27 12 442 12 1719 1 927 5 1681 9
1675 5 -5 19 -58 31 -119 12 -60 62 -308 111 -550 49 -242 104 -525 124 -630
35 -193 159 -815 221 -1115 19 -91 48 -239 65 -330 110 -581 124 -646 153
-678 33 -35 79 -42 296 -42 186 0 209 2 247 21 57 27 63 45 124 364 27 143 76
393 109 555 79 386 140 694 202 1020 27 146 65 339 84 430 19 91 56 280 84
420 66 338 108 543 123 610 11 46 14 -233 18 -1640 5 -1597 6 -1697 23 -1723
37 -57 45 -58 422 -55 l345 3 25 26 c15 14 31 43 36 65 5 23 9 1187 8 2858 0
3038 4 2853 -51 2904 l-25 23 -485 -3 c-470 -3 -487 -4 -508 -23 -13 -11 -31
-38 -40 -60 -10 -22 -57 -238 -105 -480 -48 -242 -113 -573 -146 -735 -33
-162 -76 -376 -95 -475 -44 -221 -253 -1261 -336 -1672 -34 -166 -65 -300 -69
-298 -4 3 -9 22 -12 42 -5 42 -66 350 -158 798 -89 436 -172 852 -245 1224
-35 184 -71 364 -79 400 -8 36 -44 217 -80 401 -102 518 -164 800 -179 822 -8
12 -28 29 -43 39 -26 18 -57 19 -498 19 -396 -1 -474 -3 -497 -16z"/>
<path d="M17438 10582 c-30 -18 -58 -67 -58 -99 0 -22 13 -80 130 -593 45
-195 108 -476 141 -625 33 -148 93 -421 135 -605 116 -513 178 -788 250 -1110
152 -687 185 -832 214 -952 16 -70 48 -212 69 -315 22 -103 58 -263 80 -354
22 -91 58 -253 81 -360 22 -107 63 -284 89 -394 27 -110 58 -244 70 -297 26
-112 50 -142 124 -153 23 -3 239 -5 479 -3 l436 3 25 23 c32 30 41 54 67 177
12 55 41 183 66 285 25 102 65 277 90 390 24 113 64 293 89 400 24 107 67 296
95 420 27 124 59 263 70 310 11 47 43 186 70 310 27 124 60 272 74 330 13 58
48 213 76 345 28 132 67 303 85 380 19 77 48 205 65 285 29 138 106 481 206
915 66 288 227 1010 254 1140 12 55 -4 108 -41 139 l-31 26 -425 0 c-406 0
-427 -1 -458 -20 -17 -11 -37 -31 -43 -44 -11 -25 -54 -225 -112 -521 -17 -88
-38 -191 -46 -230 -8 -38 -71 -349 -140 -690 -68 -341 -143 -710 -165 -820
-23 -110 -74 -364 -114 -565 -41 -201 -92 -452 -114 -558 -22 -105 -56 -278
-76 -384 -19 -105 -37 -193 -40 -196 -5 -6 -5 -5 -64 288 -28 135 -77 373
-110 530 -32 157 -107 524 -165 815 -58 292 -128 640 -156 775 -27 135 -61
308 -74 385 -51 287 -227 1140 -242 1170 -31 66 -26 65 -501 65 -385 -1 -431
-2 -455 -18z"/>
<path d="M22183 10590 c-28 -11 -57 -58 -72 -113 -24 -93 -72 -303 -111 -487
-23 -107 -62 -280 -86 -385 -24 -104 -53 -235 -65 -290 -19 -98 -27 -133 -89
-405 -37 -160 -52 -229 -74 -330 -9 -41 -34 -151 -55 -245 -22 -93 -69 -307
-105 -475 -37 -168 -82 -368 -101 -445 -19 -77 -52 -223 -74 -325 -22 -102
-56 -255 -76 -340 -19 -85 -56 -247 -81 -360 -25 -113 -54 -241 -64 -285 -27
-115 -60 -261 -134 -590 -89 -395 -121 -538 -141 -620 -16 -64 -16 -74 -2
-107 29 -69 26 -69 501 -66 l424 3 27 25 c32 30 41 62 109 385 47 223 156 769
156 781 0 2 296 4 658 4 l657 0 49 -252 c62 -324 173 -831 190 -872 7 -17 23
-40 36 -51 21 -19 38 -20 444 -23 231 -1 432 0 444 3 13 3 35 18 48 32 40 43
36 73 -81 575 -50 210 -96 416 -130 573 -19 88 -53 239 -75 335 -23 96 -54
236 -70 310 -16 74 -50 223 -75 330 -25 107 -66 290 -90 405 -24 116 -56 260
-71 320 -14 61 -30 128 -35 150 -5 22 -15 69 -23 105 -8 36 -29 130 -46 210
-17 80 -44 201 -61 270 -17 69 -50 217 -75 330 -72 329 -78 357 -179 805 -36
160 -84 373 -106 475 -100 463 -122 557 -136 583 -8 15 -28 37 -46 47 -31 19
-53 20 -562 19 -291 0 -540 -4 -552 -9z m562 -1422 c65 -390 104 -615 120
-684 8 -38 37 -188 65 -334 27 -146 68 -355 90 -465 21 -110 51 -263 65 -340
54 -290 96 -505 101 -520 5 -13 -46 -15 -461 -15 -415 0 -466 2 -461 15 3 9
22 100 41 203 20 103 56 286 81 407 25 121 56 276 69 345 13 69 51 267 84 440
34 173 77 403 96 510 58 316 85 464 85 467 0 2 4 3 10 3 5 0 12 -15 15 -32z"/>
<path d="M25296 10579 c-60 -48 -56 185 -56 -2914 0 -3121 -5 -2884 62 -2925
32 -20 46 -20 415 -18 l383 3 32 33 33 32 5 1593 5 1592 92 -265 c210 -606
283 -818 435 -1265 198 -581 324 -948 373 -1085 20 -58 54 -154 75 -215 87
-250 129 -357 146 -377 41 -46 63 -48 431 -48 383 0 386 1 415 60 17 33 18
192 18 2888 0 2671 -1 2854 -17 2879 -34 51 -52 53 -455 53 -412 0 -401 2
-432 -64 -15 -31 -16 -169 -17 -1523 -1 -818 -4 -1517 -8 -1551 l-6 -64 -83
244 c-46 133 -130 380 -187 548 -57 168 -140 411 -185 540 -104 299 -319 927
-420 1225 -180 532 -198 578 -235 613 l-35 32 -379 0 c-368 0 -379 -1 -405
-21z"/>
</g>
</svg>
